<?xml version="1.0" encoding="utf-8"?>
<!-- Generator: Adobe Illustrator 26.3.1, SVG Export Plug-In . SVG Version: 6.00 Build 0)  -->
<svg version="1.1" id="Layer_1" xmlns="http://www.w3.org/2000/svg" xmlns:xlink="http://www.w3.org/1999/xlink" x="0px" y="0px"
	 viewBox="100 470 880 140" style="enable-background:new 0 0 1080 1080;" xml:space="preserve">
<style type="text/css">
	.st0{fill:#EF3D3A;}
	.st1{fill:#3953A4;}
	.st2{fill:#EF3E3A;}
	.st3{fill:#3B54A4;}
</style>
<g id="ARKA_YUZ">
	<g id="LOGO__x26__TEXT">
		<g>
			<path class="st0" d="M179.4,530.8c0,10.1,0,20.2,0,30.3c0,5.3,3,8.5,8,8.5c8.6,0,17.1,0,25.7,0c3.6,0,4.9,1.4,5,5.2
				c0,2.6,0,5.2,0,7.8c-0.1,3.1-1.7,4.8-4.6,4.8c-17.2,0-34.4,0-51.6,0c-5.3,0-9.3-4.1-9.8-9.8c-0.1-0.9-0.1-1.9-0.1-2.8
				c0-14.5,0-29,0-43.6c0-5-1.7-6.7-6.4-6.7c-9.6,0-19.3,0-28.9,0c-2.9,0-3.3-0.4-3.3-3.5c0-9.1,0-18.2,0-27.3c0-4,1.3-5.4,5-5.4
				c16.6,0,33.3,0,49.9,0c6.8,0,11.2,4.7,11.2,12C179.4,510.4,179.4,520.6,179.4,530.8z"/>
			<path class="st1" d="M266.7,530.8c0-10,0-19.9,0-29.9c0-8.1,4.2-12.7,11.8-12.7c16.4,0,32.8,0,49.1,0c4,0,5.2,1.3,5.2,5.6
				c0,9.2,0,18.4,0,27.5c0,2.7-0.4,3.1-3,3.2c-9.8,0-19.6,0-29.4,0c-4.6,0-6.2,1.8-6.2,6.7c0,14.7-0.2,29.5,0.1,44.2
				c0.1,7.3-4.8,12.2-11.4,12.1c-16.4-0.3-32.9-0.1-49.3-0.1c-4.1,0-5.5-1.5-5.5-5.8c0-2.3,0-4.6,0-6.9c0-3.5,1.4-5,4.7-5
				c8.6,0,17.1-0.2,25.7,0.1c4.2,0.1,8.4-3.2,8.3-8.7C266.5,550.9,266.7,540.8,266.7,530.8z"/>
			<g>
				<g>
					<path class="st2" d="M375.9,501.3h10l32.3,71.2h-5.9c-1.6,0-3.1-0.4-4.4-1.2c-1.3-0.8-2.3-1.9-2.9-3.4l-5.2-11.3h-37.9
						l-5.1,11.3c-0.6,1.4-1.6,2.5-2.9,3.3c-1.3,0.8-2.8,1.2-4.4,1.2h-5.9L375.9,501.3z M380,517l-13.5,29.7h28.9L381.9,517
						c-0.6-1.2-0.9-2.6-1-4.2c-0.1,0.8-0.2,1.6-0.3,2.3C380.4,515.8,380.2,516.4,380,517z"/>
					<path class="st2" d="M470.6,520.4v69h-10.2V568c-1.1,1-2.2,1.9-3.3,2.6c-1.2,0.7-2.3,1.2-3.5,1.6c-1.2,0.4-2.4,0.7-3.7,0.8
						c-1.2,0.2-2.4,0.3-3.6,0.3c-3.8,0-7.4-0.7-10.7-2.1c-3.3-1.4-6.1-3.3-8.5-5.8c-2.4-2.4-4.3-5.3-5.6-8.5c-1.4-3.3-2-6.7-2-10.4
						c0-3.7,0.7-7.1,2-10.4c1.4-3.3,3.2-6.1,5.6-8.5c2.4-2.4,5.2-4.4,8.5-5.8c3.3-1.4,6.9-2.1,10.7-2.1c1.2,0,2.4,0.1,3.6,0.2
						c1.2,0.2,2.5,0.5,3.7,0.9c1.2,0.4,2.4,1,3.5,1.6c1.2,0.7,2.3,1.5,3.3,2.6v-0.3c0-0.6,0.1-1.1,0.3-1.7c0.2-0.5,0.3-1,0.5-1.3
						c0.2-0.4,0.5-0.8,0.8-1.2H470.6z M446.2,563.6c2.7,0,5.2-0.5,7.7-1.5c2.5-1,4.6-2.4,6.4-4.1v-23.1c-1.8-1.8-3.9-3.1-6.4-4.1
						c-2.5-1-5.1-1.5-7.7-1.5c-2.5,0-4.8,0.5-6.8,1.4c-2.1,0.9-3.9,2.1-5.4,3.7c-1.5,1.6-2.7,3.4-3.5,5.5c-0.8,2.1-1.2,4.3-1.2,6.7
						c0,2.4,0.4,4.6,1.2,6.7c0.8,2.1,2,3.9,3.5,5.5c1.5,1.6,3.3,2.8,5.4,3.7C441.4,563.2,443.7,563.6,446.2,563.6z"/>
					<path class="st2" d="M522.5,572.5c-0.3-0.4-0.6-0.8-0.8-1.2c-0.2-0.4-0.4-0.8-0.5-1.3c-0.2-0.5-0.3-1.1-0.3-1.7v-2.1
						c-0.6,1.2-1.5,2.2-2.6,3.1c-1.1,0.9-2.3,1.6-3.7,2.2c-1.4,0.6-2.9,1-4.5,1.3c-1.6,0.3-3.2,0.4-4.9,0.4c-3.1,0-5.9-0.5-8.4-1.6
						c-2.5-1.1-4.6-2.7-6.4-4.7c-1.8-2-3.2-4.5-4.1-7.3c-1-2.9-1.5-6.1-1.5-9.6v-29.6h10.2V550c0,4.3,0.8,7.7,2.5,10.2
						c1.7,2.5,4.2,3.7,7.7,3.7c2.1,0,4-0.2,5.9-0.7c1.8-0.5,3.5-1.1,4.9-2c1.4-0.8,2.6-1.8,3.4-2.9c0.9-1.1,1.3-2.2,1.4-3.4v-34.6
						h10.2v52.1H522.5z"/>
					<path class="st2" d="M547.5,528c0.3-0.5,0.8-1,1.2-1.5c0.4-0.4,0.9-0.9,1.6-1.4c0.6-0.5,1.3-1,2.2-1.6c2.1-1.3,4.3-2.2,6.7-2.9
						c2.4-0.7,5-1,8-1c3,0,5.6,0.3,7.8,1c2.2,0.7,4.1,1.7,5.7,2.9c1.6,1.2,2.8,2.7,3.8,4.4c1,1.7,1.8,3.5,2.3,5.5
						c0.6,2,1,4.1,1.2,6.3c0.2,2.2,0.3,4.4,0.3,6.7v26h-8.4c-0.4-0.5-0.8-1.2-1.1-1.9c-0.3-0.7-0.4-1.5-0.4-2.3V567
						c-1,0.9-2.1,1.8-3.5,2.5c-1.4,0.8-2.8,1.4-4.2,2c-1.5,0.5-2.9,1-4.4,1.3c-1.5,0.3-2.8,0.5-4,0.5c-2.7,0-5.2-0.4-7.5-1.1
						c-2.3-0.7-4.2-1.8-5.8-3.2c-1.6-1.4-2.8-3-3.7-5c-0.9-1.9-1.3-4.1-1.3-6.5c0-2.6,0.5-4.9,1.5-7c1-2.1,2.5-3.8,4.6-5.3
						c2.1-1.5,4.6-2.6,7.8-3.4c3.1-0.8,6.8-1.2,11-1.2c1.2,0,2.3,0,3.4,0.1c1.1,0.1,2.1,0.1,2.9,0.2c0.9,0.1,1.6,0.1,2.1,0.2
						c0.6,0.1,0.9,0.1,1.1,0.2c-0.1-2.5-0.5-4.5-1.2-6.1c-0.6-1.6-1.5-2.8-2.5-3.8c-1-0.9-2.1-1.5-3.4-1.9c-1.3-0.3-2.6-0.5-4-0.5
						c-1.7,0-3,0.1-4,0.4c-1,0.3-1.8,0.6-2.6,0.9c-0.7,0.3-1.5,0.7-2.2,0.9c-0.7,0.3-1.7,0.4-2.9,0.4c-0.9,0-1.8-0.1-2.6-0.4
						c-0.8-0.3-1.6-0.7-2.4-1.3L547.5,528z M562,563.8c1.2,0,2.5-0.1,3.9-0.3c1.4-0.2,2.8-0.6,4.2-1c1.4-0.4,2.8-0.9,4.2-1.5
						c1.4-0.6,2.7-1.2,4-2v-8.7c-0.1,0-0.5-0.1-1.1-0.1c-0.6,0-1.3,0-2.2-0.1c-0.9,0-1.9-0.1-2.9-0.1c-1.1,0-2.2,0-3.3,0
						c-2.1,0-4.1,0.1-6,0.4c-1.8,0.3-3.4,0.7-4.8,1.3c-1.4,0.6-2.4,1.4-3.2,2.3c-0.8,0.9-1.2,2.1-1.2,3.5c0,1.2,0.2,2.1,0.6,2.9
						c0.4,0.8,1,1.4,1.8,1.9c0.8,0.5,1.7,0.9,2.7,1.1C559.7,563.7,560.8,563.8,562,563.8z"/>
					<path class="st3" d="M662.6,513.4c-1.3-0.9-2.7-1.7-4.1-2.2c-1.4-0.6-2.7-0.8-3.9-0.8c-1.6,0-3.1,0.2-4.6,0.6
						c-1.4,0.4-2.7,1-3.8,1.8c-1.1,0.8-2,1.7-2.6,2.7c-0.6,1-1,2.2-1,3.4c0,1.4,0.2,2.6,0.7,3.6c0.5,1,1.3,1.9,2.3,2.7
						c1.1,0.8,2.5,1.5,4.2,2.2c1.7,0.7,3.8,1.4,6.2,2.2c1.2,0.5,2.4,0.9,3.6,1.3c1.2,0.4,2.4,0.9,3.6,1.3c1.2,0.5,2.3,1,3.5,1.6
						c1.1,0.6,2.2,1.2,3.3,2c5.2,3.8,7.8,8.9,7.8,15.4c0,3.3-0.7,6.2-2.1,8.9c-1.4,2.7-3.2,5-5.6,6.9c-2.3,1.9-5.1,3.4-8.1,4.5
						c-3.1,1.1-6.3,1.6-9.6,1.6c-6.7,0-12.2-1.9-16.7-5.7c-0.9-0.8-1.7-1.5-2.4-2.3c-0.7-0.8-1.3-1.5-1.8-2.3
						c-0.5-0.7-0.9-1.4-1.3-2c-0.3-0.6-0.6-1.1-0.8-1.5l2.5-1.2c1.3-0.8,2.7-1.1,4.1-1.1c2.2,0,4.1,0.8,5.7,2.3l0.8,0.6
						c1.3,1.1,2.8,1.9,4.4,2.5c1.6,0.6,3.4,0.9,5.5,0.9c1.7,0,3.4-0.3,5.2-0.8s3.4-1.3,4.9-2.3c1.5-1,2.7-2.3,3.6-3.8
						c0.9-1.5,1.4-3.3,1.4-5.2c0-1.9-0.4-3.5-1.3-4.8c-0.9-1.3-2.1-2.3-3.5-3.2c-1.4-0.9-3-1.7-4.8-2.3c-1.8-0.6-3.5-1.3-5.3-1.9
						c-2.6-1-5-2-7.5-3c-2.4-1-4.6-2.3-6.5-3.8c-1.9-1.5-3.5-3.3-4.6-5.4c-1.2-2.1-1.7-4.8-1.7-8c0-2.9,0.6-5.5,1.9-7.8
						c1.3-2.3,2.9-4.2,5-5.8c2.1-1.6,4.4-2.8,7.1-3.6c2.7-0.8,5.4-1.2,8.2-1.2c2,0,4.1,0.3,6.1,1c2,0.7,3.9,1.5,5.6,2.5
						c1.8,1,3.3,2.2,4.8,3.4c1.4,1.2,2.6,2.4,3.5,3.5l-2.6,1.9c-1.4,1.2-3.1,1.8-5,1.8C665.3,514.6,663.9,514.2,662.6,513.4z"/>
					<path class="st3" d="M683.1,520.3h5.9c0.8,0,1.6,0.1,2.3,0.3c0.8,0.2,1.5,0.5,2.1,0.9c0.7,0.4,1.2,0.9,1.7,1.4
						c0.5,0.6,0.9,1.2,1.2,1.9l12,26.5c1.1,2.3,1.6,4.5,1.6,6.4c0,0.5,0,0.9-0.1,1.3c-0.1,0.4-0.2,0.8-0.3,1.2
						c0.5-1.1,2-4.4,4.5-9.9c2.5-5.4,6-13.1,10.4-22.9l1.2-2.6c0.6-1.4,1.6-2.5,2.9-3.3c1.3-0.8,2.8-1.2,4.4-1.2h5.9L708.6,587
						c-0.6,1.5-1.6,2.7-2.9,3.5c-1.4,0.8-2.9,1.3-4.5,1.3h-5.9l10.1-22.3L683.1,520.3z"/>
					<path class="st3" d="M746.2,561.3c0.7-0.3,1.4-0.6,2-0.8c0.7-0.2,1.4-0.3,2-0.3c0.9,0,1.7,0.2,2.6,0.5c0.8,0.3,1.8,0.9,2.9,1.6
						c0.8,0.5,1.7,0.9,2.6,1.1c0.9,0.2,1.9,0.3,2.9,0.3c1.1,0,2.1-0.2,3.2-0.5c1-0.3,2-0.8,2.8-1.4c0.8-0.6,1.5-1.4,2-2.3
						c0.5-0.9,0.8-1.9,0.8-3.1c0-0.9-0.1-1.7-0.4-2.4c-0.3-0.7-0.8-1.3-1.5-1.8c-0.7-0.5-1.7-1.1-2.9-1.6c-1.2-0.5-2.8-1.1-4.6-1.7
						c-1.9-0.6-3.8-1.3-5.6-2.2c-1.8-0.8-3.5-1.8-4.9-2.9c-1.4-1.2-2.6-2.6-3.5-4.2c-0.9-1.7-1.3-3.6-1.3-6c0-2,0.5-3.9,1.4-5.6
						c1-1.7,2.2-3.2,3.8-4.5c1.6-1.3,3.4-2.3,5.4-3c2-0.7,4-1.1,6.1-1.1c2.1,0,4,0.4,5.8,1.1c1.7,0.7,3.2,1.6,4.5,2.5
						c1.3,0.9,2.3,1.8,3,2.6c0.7,0.8,1.2,1.3,1.4,1.5l-2.4,2c-1.4,1.2-3.1,1.8-5.1,1.8c-0.7,0-1.4-0.1-2.2-0.4
						c-0.8-0.3-1.7-0.7-2.7-1.2c-0.7-0.3-1.4-0.5-2.2-0.5c-1.3,0-2.5,0.2-3.3,0.5c-0.9,0.4-1.6,0.8-2.1,1.3c-0.5,0.5-0.9,1-1.1,1.6
						c-0.2,0.5-0.3,1-0.3,1.3c0,1,0.3,1.8,0.8,2.4c0.5,0.6,1.2,1.2,2,1.7c0.8,0.5,1.8,0.9,2.8,1.3c1.1,0.4,2.1,0.7,3.2,1
						c2.1,0.7,4.1,1.4,6,2.3c1.9,0.9,3.6,1.9,5.1,3.2c1.5,1.3,2.7,2.8,3.6,4.5c0.9,1.8,1.3,3.9,1.3,6.3c0,2.3-0.5,4.4-1.4,6.4
						c-0.9,2-2.2,3.8-3.9,5.3c-1.7,1.5-3.6,2.8-5.9,3.7c-2.3,0.9-4.8,1.3-7.5,1.3c-1.9,0-3.7-0.2-5.5-0.7c-1.8-0.5-3.4-1.2-5-2.1
						c-1.6-0.9-3-2-4.2-3.3c-1.3-1.3-2.3-2.8-3.2-4.4L746.2,561.3z"/>
					<path class="st3" d="M805,559.3c0,0.5,0.1,1.1,0.3,1.6c0.2,0.5,0.4,1,0.7,1.5c0.3,0.4,0.7,0.8,1.2,1.1c0.5,0.3,1,0.4,1.6,0.4
						l1.2-0.2c1.5-0.4,2.8-0.6,3.9-0.6c1.4,0,2.7,0.3,3.7,1c1.1,0.7,2,1.6,2.7,2.6l1.2,1.7c-0.6,0.6-1.5,1.2-2.5,1.8
						c-1.1,0.6-2.2,1.1-3.4,1.5c-1.2,0.4-2.4,0.8-3.6,1c-1.2,0.3-2.3,0.4-3.3,0.4c-2.2,0-4.1-0.3-5.8-1c-1.7-0.7-3.2-1.7-4.4-2.9
						c-1.2-1.2-2.1-2.7-2.8-4.4c-0.7-1.7-1-3.6-1-5.6v-29.6h-9.1v-5.4c0-2.7,2.6-4.1,7.9-4.1h1.1v-10.7c0-1.1,0.1-2.1,0.4-3
						c0.3-0.9,0.5-1.7,0.9-2.4c0.4-0.8,0.8-1.5,1.2-2.1h7.8v18.3h15.1v9.4H805V559.3z"/>
					<path class="st3" d="M880.4,542c0,1.2-0.2,2.2-0.7,3.1c-0.5,0.9-1,1.7-1.7,2.3c-0.7,0.6-1.5,1.1-2.3,1.5
						c-0.8,0.3-1.6,0.5-2.4,0.5h-37.8c0.3,2,1,3.9,2.1,5.6c1.1,1.7,2.4,3.2,4,4.5c1.6,1.3,3.4,2.3,5.4,3c2,0.7,4.1,1.1,6.3,1.1
						c1.6,0,3.1-0.2,4.6-0.6c1.5-0.4,2.9-0.9,4.2-1.6c0.7-0.4,1.4-0.6,2-0.8c0.7-0.2,1.4-0.3,2.2-0.3c1.1,0,2.1,0.2,3,0.6
						c0.9,0.4,1.7,1,2.5,1.7l2,1.9c-2.6,2.6-5.6,4.7-9.1,6.3c-3.5,1.5-7.3,2.3-11.3,2.3c-3.8,0-7.4-0.7-10.8-2.1
						c-3.4-1.4-6.4-3.3-8.9-5.8c-2.5-2.4-4.5-5.3-6-8.5c-1.5-3.3-2.2-6.7-2.2-10.4c0-3.7,0.7-7.1,2.2-10.4c1.5-3.3,3.5-6.1,6-8.5
						c2.5-2.4,5.5-4.4,8.9-5.8c3.4-1.4,7-2.1,10.8-2.1c3.2,0,6.3,0.5,9.2,1.5c2.9,1,5.6,2.4,8,4.2c2.4,1.8,4.4,3.9,6.1,6.4
						c1.7,2.5,2.9,5.1,3.7,8c0.1,0.4,0.2,0.7,0.2,1.1C880.3,541.2,880.3,541.6,880.4,542z M839.3,539.9h30.4c-0.7-1.6-1.6-3-2.7-4.3
						c-1.1-1.3-2.4-2.4-3.8-3.4s-3-1.7-4.7-2.2c-1.7-0.5-3.5-0.8-5.4-0.8c-2,0-4,0.3-5.8,0.9c-1.8,0.6-3.5,1.5-5,2.6
						c-1.5,1.1-2.8,2.4-3.9,3.9c-1.1,1.5-1.9,3.2-2.5,4.9c0.3-0.4,0.7-0.7,1.2-1.1C837.8,540,838.5,539.9,839.3,539.9z"/>
					<path class="st3" d="M930.7,529.8c0.7-1.8,1.6-3.3,2.9-4.6c1.3-1.3,2.7-2.4,4.3-3.2c1.6-0.8,3.3-1.4,5.1-1.8
						c1.8-0.4,3.6-0.6,5.4-0.6c3.3,0,6.1,0.7,8.5,2c2.3,1.3,4.2,3.1,5.7,5.3c1.4,2.2,2.5,4.7,3.2,7.5c0.7,2.8,1,5.7,1,8.6v29.5
						h-10.5V543c0-1.4-0.1-3-0.3-4.6c-0.2-1.6-0.7-3.1-1.3-4.5c-0.6-1.4-1.5-2.5-2.6-3.4c-1.1-0.9-2.6-1.4-4.4-1.4
						c-1.8,0-3.4,0.2-5,0.7c-1.6,0.5-3,1.1-4.2,2c-1.2,0.8-2.2,1.8-2.9,2.9c-0.7,1.1-1.1,2.2-1.2,3.4v34.4h-10.5V543
						c0-1.4-0.1-3-0.3-4.6c-0.2-1.6-0.7-3.1-1.3-4.5c-0.6-1.4-1.5-2.5-2.6-3.4c-1.1-0.9-2.6-1.4-4.4-1.4c-1.8,0-3.4,0.2-5,0.7
						c-1.6,0.5-3,1.1-4.2,2c-1.2,0.8-2.2,1.8-2.9,2.9c-0.7,1.1-1.1,2.2-1.2,3.4v34.4h-10.2v-52.1h8.7c0.3,0.4,0.6,0.8,0.8,1.2
						c0.2,0.4,0.4,0.8,0.5,1.3c0.2,0.5,0.3,1.1,0.3,1.7v2.1c0.6-1.2,1.4-2.2,2.4-3.1c1-0.9,2.1-1.6,3.4-2.2c1.2-0.6,2.6-1,4-1.3
						c1.4-0.3,2.8-0.4,4.3-0.4c2.1,0,4,0.2,5.6,0.7c1.6,0.5,3,1.1,4.2,2c1.2,0.9,2.2,1.9,2.9,3.2
						C929.5,526.8,930.2,528.2,930.7,529.8z"/>
				</g>
			</g>
		</g>
	</g>
</g>
</svg>
